<svg xmlns="http://www.w3.org/2000/svg" xmlns:xlink="http://www.w3.org/1999/xlink" version="1.1" id="Layer_1" x="0px" y="0px" viewBox="0 0 200.9 161.8" enable-background="new 0 0 200.9 161.8" xml:space="preserve">
<path fill-rule="evenodd" clip-rule="evenodd" fill="#BF252A" d="M106.9 142.8c-0.7 0-1 0.2-1.2 0.2h-5.8c-0.4 0 0.2-0.2-1.4-0.2 l-2.7 0c-0.6 0-0.4-0.1-0.8-0.2c-0.2 0-0.7 0-0.9 0c-0.6 0-0.4 0-0.9-0.1c-0.3-0.1-0.6 0-1 0c-0.3 0-0.5-0.1-0.9-0.2 c-0.3 0-0.6 0-0.9 0c-0.5 0-0.4-0.1-0.8-0.2c-0.5 0-0.5 0-0.9-0.1c-0.4-0.1-0.4-0.1-0.9-0.1l-11.3-2.5c-0.3-0.1-0.5-0.1-0.8-0.2 l-0.3-0.1c-0.1 0 0 0-0.2-0.1l-2.9-1c0 0 0 0-0.2-0.1c0-0.5 0-1 0.2-1.4l1.8-7.1c0.1-0.3 0.1-0.2 0.2-0.6l1.4-5.2 c0.1-0.5 0.3-0.8 0.4-1.3l0.8-3.3c0.1-0.3 0.1-0.2 0.2-0.6c0.1-0.3 0.1-0.4 0.1-0.7l1.7-6.4c0.1-0.3 0.1-0.4 0.1-0.7c0 0 0 0 0-0.1 l0.1-0.1c0.3-0.9 0.4-1.8 0.7-2.7c0.1-0.3 0 0 0.1-0.3c0-0.1 0-0.2 0.1-0.3l0.2-1c0.1-0.2 0.1-0.4 0.2-0.7l0.1-0.5c0 0 0 0 0-0.1 c0 0 0 0 0-0.1l0.1-0.1c0 0 0 0 0-0.1l4.5-16.7c0.1-0.2 0.1-0.5 0.2-0.7c0.1-0.3 0.1-0.3 0.2-0.6l1-3.9c0-0.2 0.1-0.5 0.1-0.7 c0.1-0.3 0.1-0.3 0.2-0.6l0.6-2.1c0.3-1.2 0.7-2.5 1-3.7c0.1-0.3 0.1-0.3 0.2-0.6c0.4-1 0.5-2.3 0.8-3.3c0.1-0.3 0.2-0.3 0.2-0.6 c0.1-0.4 0-0.3 0.1-0.7l0.6-1.9c0.1-0.2 0.1-0.5 0.1-0.7c0.2-0.9 0.6-1.8 0.7-2.6c0.1-0.4 0.1-0.5 0.4-0.8c0 0 0 0 0.1 0 c0.4-0.2 0.5-0.2 0.9-0.2c0.6 0 0.3-0.1 0.7-0.2l3.1-0.2c0.5 0 1.1 0 1.6 0c0.5-0.1 0.7-0.2 1.5-0.2c0.6 0 1.1 0 1.7 0 c0.6 0 0.9-0.1 1.6-0.1l9.2 0.5c0.5 0 0.9 0.1 1.5 0.2c0.4 0 0.6 0.1 0.8 0.3l0.6 1.9c0.2 0.7 0.4 1.6 0.6 2.3l0.5 1.9 c0.4 1.1 0.6 2.2 0.9 3.3l0.5 1.9c0.1 0.3 0.1 0.4 0.2 0.7l1.6 5.8c0.3 1.5 0.9 3 1.2 4.5l1.7 6.5c0.1 0.4 0.2 0.9 0.3 1.3l1.4 5.2 c0.4 1.6 0.8 3.1 1.3 4.7l0.5 1.8c0.3 1.3 0.7 2.6 1 3.9l3.6 13.6c0 0.2 0.1 0.5 0.2 0.7l0.3 0.9c0 0 0 0 0 0.1l0.1 0.3 c0 0.5 0 0.3 0.1 0.7c0 0.1 0.1 0.2 0.1 0.3l0.4 1.6c0.5 2 2.3 7.8 2.3 9.3c0 0.5-1 0.7-1.3 0.8l-2.4 0.8c0 0 0 0-0.1 0l-0.8 0.2 c-0.2 0.1 0 0-0.2 0.1l-2.9 0.8c-0.1 0-0.1 0-0.2 0c0 0-0.2 0.1-0.2 0.1c-0.2 0.1-0.2 0-0.4 0.1c-0.5 0.1-0.1 0-0.4 0.1 c-0.2 0.1-0.2 0-0.4 0.1l-2.1 0.5c-0.4 0.1-0.5 0-0.9 0.1c-0.3 0.1-0.5 0-0.8 0.1c-0.3 0.1-0.1 0.1-0.3 0.1 c-0.6 0.1-1.2 0.1-1.8 0.2c-0.2 0-0.2 0.1-0.4 0.1c-0.4 0.1-0.5 0-0.9 0.1l-1.7 0.3c-1.2 0-0.8 0.1-1.8 0.2c-0.3 0-0.6 0-1 0.1 c-0.4 0.1-0.3 0.1-0.9 0.1c-1.1 0-1.7 0.2-2.9 0.2c-0.4 0-0.6 0-1 0C107.3 142.9 107.5 142.8 106.9 142.8L106.9 142.8L106.9 142.8z M200.9 85.7L200.9 85.7c0-0.2-0.6-1.1-0.8-1.4c-0.2-0.3-1-1.5-1.1-1.9h-0.3c0-0.6-0.6-1.1-0.7-1.2l-0.2-0.2c0 0 0 0 0-0.1l-1.7-2.3 c0 0-0.1-0.1-0.1-0.1l-2.9-3.3c-0.3-0.3-0.4-0.2-0.4-0.5c-0.4 0-0.6-0.5-0.9-0.7l-1.5-1.5c-0.1-0.1-0.1-0.1-0.2-0.2l-1.5-1.3 c-0.1-0.1-0.1-0.1-0.2-0.2l-1-0.9c0 0-0.1-0.1-0.1-0.1c-0.1-0.1 0 0-0.2-0.1c-0.3-0.2-0.1 0-0.4-0.3l-1-0.8c0 0-0.1-0.1-0.1-0.1 c-0.2-0.1-0.2-0.1-0.4-0.3l-0.7-0.6c-0.1-0.1 0 0-0.2-0.1l-1.9-1.4c0 0 0 0-0.1 0l-4.4-2.8c-0.2-0.1-0.3-0.2-0.4-0.2l-2.1-1.2 c-0.7-0.3-1.3-0.8-2-1.1l-2.4-1.2c0 0 0 0-0.1 0l-16.8-6.9c0 0 0 0-0.1 0l-0.8-0.2c0 0 0 0-0.1 0l-0.6-0.2c-0.4-0.1-0.6-0.2-1-0.3 c-0.1 0-0.1 0-0.2 0l-7.3-2c-0.2 0-0.3-0.1-0.5-0.1l-1.6-0.4c0 0 0 0-0.1 0l-1.4-0.3c-0.2 0-0.4-0.1-0.5-0.1c-0.2 0-0.4-0.1-0.6-0.1 l-2.1-0.5c-0.2 0-0.3 0-0.5 0l-5.3-1.1c-0.2 0-0.4 0-0.6 0c-0.6-0.1-0.3-0.1-1.1-0.2l-5.6-0.7c-0.4-0.1-0.7-0.2-1.1-0.2l-1.8-0.2 c-0.5 0-0.2 0-0.5-0.1c-0.8-0.3-0.9-0.6-1.1-1.3l-0.6-1.7c0 0 0 0 0-0.1c-0.4-1-0.7-2-1.1-3c-1-2.5-1.6-5.1-2.7-7.5l-0.4-1.2 c-0.4-1.2-0.7-2.3-1.3-3.5c-0.1-0.3-0.2-0.6-0.3-0.9l-3.4-9.4c-0.1-0.2-0.1-0.3-0.2-0.5c0-0.1-0.1-0.3-0.2-0.5l-2.4-6.6 c-0.1-0.4-0.2-0.5-0.4-0.9c-0.1-0.4-0.2-0.7-0.3-1c-0.1-0.3-0.2-0.5-0.3-0.9c-0.2-0.5-0.4-0.9-0.5-1.4l-1.7-4.7 c-0.7-1-1.8-0.6-2.2 0.5l-2.2 6.2c0 0 0 0 0 0.1c-0.2 0.8-0.8 1.8-1 2.6c-0.3 1.2-1.2 3.3-1.7 4.7c-0.1 0.3-0.2 0.6-0.3 1L94 22.1 c-0.3 0.7-0.4 1.4-0.7 2.1l-0.1 0.1c0 0 0 0 0 0.1c0 0 0 0 0 0.1l-2.6 7c-0.2 0.4-0.1 0.6-0.3 1L87.2 41c-0.2 0.6-0.4 1.4-0.7 2 l-0.2 0.4c-0.3 0.7-0.4 1.7-1 2.1c-0.5 0.3-1.1 0.3-1.6 0.3c-0.5 0-0.1 0.1-0.5 0.1c-0.4 0.1-0.8 0-1.2 0.1c-0.3 0.1 0 0.1-0.5 0.1 c-0.2 0-0.4 0-0.6 0c-0.4 0.1-0.5 0.2-1.1 0.2l-6 0.9c0 0 0 0-0.1 0c-1.2 0.3-2.1 0.3-3.3 0.6C70 47.9 70 47.9 69.8 48 c-0.4 0.1-0.7 0.1-1.1 0.1l-2.1 0.5c-0.4 0-0.2 0-0.5 0.1L65 48.9c-0.5 0.1-0.2 0-0.5 0.1l-1.6 0.4c-0.2 0-0.3 0.1-0.6 0.1 c-0.2 0-0.4 0.1-0.5 0.1L60.4 50c-0.3 0.1-0.3 0.1-0.5 0.2l-1.3 0.3c0 0-0.1 0-0.1 0c0 0 0 0-0.1 0c0 0 0 0-0.1 0 c-0.1 0-0.1 0-0.2 0.1l-0.9 0.2c0 0 0 0-0.1 0c-0.9 0.3-1.7 0.4-2.6 0.8l-1.3 0.4c-0.2 0.1-0.2 0.1-0.4 0.1l-4.1 1.3 c-0.6 0.2-1.3 0.4-1.9 0.7c0 0 0 0-0.1 0l-1.1 0.4c0 0 0 0-0.1 0l-5.5 2.2c-0.2 0.1-0.2 0.1-0.4 0.2l-0.6 0.3c0 0 0 0-0.1 0 l-0.2 0.1c-0.2 0.1-0.2 0.1-0.4 0.2c-0.6 0.3-1.3 0.5-1.9 0.9l-0.7 0.3c-0.2 0.1-0.2 0.1-0.4 0.2l-0.9 0.4c-0.2 0.1-0.3 0.1-0.4 0.2 c-0.2 0.1-0.2 0.1-0.4 0.2l-2.4 1.3c0 0 0 0-0.1 0l-0.5 0.3c0 0 0 0 0 0l-1.3 0.8c0 0 0 0-0.1 0c-0.3 0.1 0.2-0.1-0.1 0.1 c-0.1 0.1 0 0-0.2 0.1l-4.9 3.1c-0.1 0-0.1 0-0.2 0.1L23.6 66c-0.1 0.1-0.1 0.1-0.2 0.1l-4.1 3c0 0 0 0 0 0L17.1 71 c0 0-0.1 0.1-0.1 0.1l-0.9 0.8c-0.1 0.1-0.1 0.1-0.1 0.1l-1.9 1.7c-0.1 0.2-0.2 0.1-0.2 0.4c-0.4 0-0.2 0-0.4 0.2 c-0.2 0.2-0.1 0.1-0.3 0.3l-0.6 0.6c0 0 0 0 0 0l-1.7 1.9c-0.6 0.7-2.1 2.5-2.6 3.2c-0.3 0.5-1.2 1.6-1.7 2.4 c-0.1 0.2-0.1 0.2-0.2 0.4c-0.1 0.2-0.2 0.2-0.3 0.4l-2.4 4.4C3 89 2.7 90.2 2.2 91.3l-0.5 1.7c-0.5 1.6-0.8 3.2-1.2 4.9 c-0.2 1.1-0.4 3.3-0.4 5v1.4l0.2 3.1c0.1 1.4 0.5 2.8 0.8 4.2c0.3 1.3 1.5 4.9 2.1 6.3c0.3 0.7 0.8 1.4 1.1 2.2l0.8 1.5 c0.2 0.2 0.3 0.4 0.4 0.7l0.4 0.7c0.1 0.1 0.1 0.2 0.2 0.4c0.3 0.6 1.6 2.3 2.1 3l2 2.5c0.2 0.3 0.3 0.3 0.5 0.6l0.6 0.7 c0 0 0 0 0 0l0.7 0.7c0.1 0.1 0.2 0.2 0.3 0.3l1.3 1.4c0 0 0 0 0 0l6.3 5.5c0.2 0.1 0.2 0.1 0.3 0.2l0.6 0.5c0 0 0.2 0.1 0.2 0.1 l8.4 5.5c0.2 0.2 0.3 0.2 0.7 0.2v0.3c0.4 0 2.2 1.1 2.8 1.4l2.4 1.3c0 0 0.2 0.1 0.2 0.1l0.3 0.1c0 0 0.1 0 0.1 0.1 c0.1 0 0.1 0 0.2 0.1l0.3 0.2c0 0 0 0 0.1 0c0 0 0 0 0.1 0l4.6 2.1c0.8 0.4 1.6 0.6 2.4 0.9l2.9 1.1c0.5 0.2 0.9 0.4 1.4 0.5 c0.3 0 0.3 0.1 0.6 0.2c0.2 0.1 0.2 0.1 0.5 0.2l1.5 0.6c1.3 0.5 2.9 0.8 4.1 1.3l5.5 1.5c0 0 0 0 0.1 0l1.7 0.5 c0.4 0.1 0.7 0.1 1.1 0.2c0.4 0.1 0.2 0.1 0.5 0.1c1 0.3 2.2 0.4 3.3 0.7c0.2 0.1 0.4 0 0.6 0.1l1.1 0.2c0.2 0 0.3 0 0.5 0.1 l1.7 0.4c0.4 0.1 0.2 0 0.5 0.1c0.3 0.1 0.3 0 0.6 0l1.6 0.3c0.2 0 0.5 0 0.7 0.1c0.4 0.1 0 0.1 0.5 0.1c0.3 0 0.3 0 0.6 0 c0.7 0.2 1 0.1 1.8 0.3c0.3 0.1 0.3 0 0.6 0l1.8 0.2c0.3 0.1 0 0.1 0.5 0.1c0.5 0 0.7-0.1 1.2 0.1l4.8 0.6c0.4 0.1 0.7 0 1.2 0.1 c0.4 0 0.8 0.2 1.2 0.2l3.8 0.2c1 0 2.6 0.2 3.9 0.2c0.6 0 1.3-0.1 1.9 0c0.5 0.1 0.2 0.2 0.6 0.2h10c0.1 0 0.2-0.2 1.4-0.2 c1.6 0 3.1-0.2 4.8-0.2c1 0 0.7 0 1.5-0.2c0.4-0.1 1.2 0 1.6 0c0.7 0 0.5-0.2 1.5-0.2c0.5 0 0.4 0 0.7-0.1c0.5-0.1 1.1 0 1.6-0.1 c0.2 0 0.5-0.1 0.7-0.2l2.3-0.2c0.6 0 0.2-0.1 0.7-0.2c0.2 0 0.6 0 0.8 0c0.5 0 0.3-0.1 0.7-0.2c0.3-0.1 0.5 0 0.8 0l2.8-0.5 c0.3-0.1 0.5 0 0.8-0.1l7.6-1.4c0.5-0.1 0.2-0.1 0.7-0.2c0.5-0.1 0.9-0.1 1.4-0.2c0.3-0.1 0.4-0.1 0.7-0.1l0.4-0.1 c1.2-0.4 2.4-0.5 3.6-0.9c0.3-0.1 0.4-0.1 0.7-0.2c0.3-0.1 0.4-0.1 0.6-0.2l1.9-0.6c0.3-0.1 0.4-0.1 0.7-0.2l4.5-1.3 c0.2-0.1 0.4-0.1 0.6-0.2l8.8-3.2c0 0 0 0 0.1 0c0 0 0 0 0.1 0l1.1-0.5c0 0 0 0 0.1 0c0.1 0 0.1 0 0.2-0.1l6.8-3.2 c0.1 0 0.1-0.1 0.3-0.1l0.9-0.4c0 0 0.2-0.1 0.2-0.1c0 0 0 0 0.1 0c0 0 0 0 0.1 0c0 0 0 0 0.1 0l0.1-0.1c0.1 0 0.1-0.1 0.2-0.1 l3.2-1.8c0 0 0.3-0.1 0.3-0.1l7.1-4.7c0 0 0 0 0.1 0l3.9-3c0.1-0.1 0.1-0.1 0.2-0.2c0.3-0.2 0.3-0.1 0.4-0.5c0.5 0 0.9-0.6 1.3-1 c0.2-0.2 0 0 0.2-0.2l0.9-0.8c0 0 0 0 0 0c0 0 0 0 0 0l0.4-0.3c0.2-0.2 0.2-0.2 0.4-0.4l2.6-2.7c0 0 0 0 0 0c0.1-0.1 0.1 0 0.1-0.3 c0.4 0 0.3-0.1 0.5-0.4l2.1-2.5c0 0 0.1-0.2 0.1-0.2c0.1-0.2 0.1-0.2 0.2-0.3l2.6-3.8c0.1-0.2 0.2-0.4 0.4-0.6 c0.2-0.4 0.6-0.9 0.6-1.4v-0.2c0-0.1-0.1-0.3-0.1-0.4l-0.2-0.2c-0.2-0.2-0.5-0.2-0.8-0.2l-37 0c-0.7 0-1.5-0.2-2.2 0 c-0.9 0.3-1.3 1.4-2 2.1c-0.1 0.2-0.2 0.2-0.4 0.4l-2.8 3c0 0 0 0 0 0c0 0 0 0 0 0l-0.2 0.2c-0.5 0.6-1.2 1.1-1.8 1.6l-1.2 1.1 c-0.3 0.3-0.2 0.1-0.5 0.3l-0.1 0.1c-0.3 0.2-0.8 0.1-1-0.1c-0.2-0.2-0.2-0.3-0.3-0.5c-0.3-0.5-0.7-1.8-0.9-2.4l-6.7-18.3 c-0.1-0.3-0.1-0.3-0.2-0.6c-0.2-0.4-0.3-0.7-0.4-1.2l-0.7-1.7c0-0.1 0-0.1-0.1-0.3c-0.1-0.2-0.1-0.2-0.1-0.3l-2.6-7.2c0 0 0 0 0-0.1 L133.1 81c-0.1-0.1 0 0-0.1-0.1l-2.1-5.8c0 0 0 0 0-0.1l-1.1-2.8c-0.2-0.7-1.3-3.2-1.3-3.7c0-0.4-0.1-0.7 0.2-0.9 c0.5-0.4 0.8-0.2 1.3 0c0.2 0 0.5 0.1 0.7 0.1c0.8 0.3 1.7 0.5 2.5 0.9l1.7 0.6c0 0 0 0 0.1 0l3 1.2c0 0 0 0 0.1 0l4 1.9 c0.2 0.1 0.1 0 0.3 0.1l6.7 3.9c0.2 0.1 0.3 0.2 0.5 0.3l0.1 0.1c0.4 0.4 0.9 0.5 1.3 0.9c0.1 0.1 0 0 0.2 0.2l1.8 1.4 c0 0 0 0 0.1 0l5.3 5.2c0.2 0.2 0.2 0.2 0.3 0.4c0 0 0 0 0 0l0.8 1c0.1 0.1 0.1 0.2 0.2 0.3l0.4 0.4c0.1 0.1 0.2-0.1 0.3 0.4H199 C200.5 87 200.9 87 200.9 85.7L200.9 85.7L200.9 85.7z M55.2 128.5L55.2 128.5c0-0.4 0.1-0.2 0.2-0.5l0.6-1.5c0.3-0.9 0.8-2 1.1-2.9 l5.2-14.4c0.1-0.4 0.2-0.6 0.4-1l2.8-7.7c0.3-0.6 0.5-1.3 0.7-1.9c0.1-0.2 0.1-0.2 0.2-0.5c0.1-0.4 0.3-0.6 0.4-1l1.6-4.4 c0.2-0.4 0.2-0.6 0.3-1c0.1-0.3 0.1-0.2 0.2-0.5c0.1-0.2 0.1-0.3 0.1-0.5c0.2-0.5 0.5-1 0.6-1.5l0.8-2.4c0.3-1 0.6-1.9 1-2.8 l0.2-0.5c0.3-1.1 0.9-2.3 1.2-3.4l0.5-1.4c0.3-1.1 0.9-2.2 1.2-3.4l1.2-3.4c0 0 0 0 0-0.1l0.3-0.9c0.3-0.7 1.2-2.7 1-3.3 c-0.3-1-1.1-0.6-1.8-0.4l-0.9 0.2c-0.1 0-0.2 0.1-0.3 0.1c0 0-0.1 0-0.1 0l-3.6 1.3c-0.2 0.1-0.3 0.1-0.6 0.2L68 70.3 c-0.1 0-0.1 0.1-0.2 0.1c-0.2 0.1-0.1 0-0.3 0.1c-0.1 0-0.2 0-0.3 0.1c-0.2 0.1-0.1 0.1-0.3 0.1l-0.2 0.1c-0.8 0.4-1.6 0.7-2.5 1.1 l-1.5 0.8c0 0 0 0-0.1 0c0 0 0 0 0 0l-2.2 1.3c-0.1 0.1-0.2 0.1-0.2 0.1c0 0 0 0-0.1 0l-0.3 0.2c0 0 0 0-0.1 0l-0.2 0.1 c-0.1 0.1-0.1 0-0.2 0.1l-1.8 1.1c0 0 0 0 0 0l-2.8 1.9c0 0 0 0 0 0L53.1 79c-0.1 0.1 0 0-0.1 0.1l-2.1 1.8c0 0 0 0 0 0 c-0.1 0.1-0.1 0.1-0.2 0.2c-0.2 0.2-0.1 0.2-0.4 0.4L48.7 83c-0.2 0.2-0.2 0.2-0.3 0.4l-1.7 2c0 0 0 0 0 0c0 0 0 0 0 0L45.4 87 c-0.4 0.5-0.4 0.7-0.9 1.4c-0.7 1-1.3 2.1-1.9 3.3c-0.4 0.8-0.7 1.7-1.1 2.5l-0.3 1.1c-0.4 0.9-1.1 3.8-1.1 4.8c0 0.6 0 0.7-0.1 1.3 c-0.3 1.7 0 3.7 0.1 5.5c0.1 1 0.7 3.7 1.1 4.7l0.6 1.6l3.1 5.6c0 0 0.1 0.1 0.1 0.1c0.2 0.3 0.1 0.1 0.1 0.5c0.5 0.1 1 1.3 1.6 1.9 c0.2 0.2 0.1 0.1 0.3 0.3l3.6 3.9c0 0 0 0 0 0l3 2.6c0.4 0.4-0.4-0.3 0.1 0.1c0 0 0 0 0 0c0.3 0.2 0.3 0.1 0.4 0.4H55.2L55.2 128.5z M97 43.7c0-0.4 0.6-2 0.7-2.3c0.1-0.2 0.1-0.4 0.1-0.6l0.3-1.2c0.1-0.2 0.1-0.4 0.1-0.7c0.1-0.5 0.2-0.7 0.3-1.1l2.6-9.6 c0.1-0.5 0-0.2 0.2-0.6l0.8-2.7c0.1-0.3 0.1 0.1 0.1-0.4c0.6-0.1 0-0.2 0.6-0.2l0.4 0.1c0.6 0.2 0.6 0.8 0.7 1.3l4.5 16.8 c0.1 0.3 0.4 1.5 0.3 1.8c-0.1 0.2-0.2 0.3-0.3 0.6h-11c-0.2-0.4 0 0-0.2-0.2C97 44.4 97 44.4 97 43.7L97 43.7z"/>
</svg>
